<svg xmlns="http://www.w3.org/2000/svg" viewBox="0 0 512 512" role="img" aria-label="Holiday George sun mascot">
  <defs>
    <radialGradient id="sun" cx="35%" cy="30%" r="70%">
      <stop offset="0%" stop-color="#fff8c9"/>
      <stop offset="35%" stop-color="#ffe36e"/>
      <stop offset="72%" stop-color="#f4b544"/>
      <stop offset="100%" stop-color="#ef8f2f"/>
    </radialGradient>
    <filter id="shadow" x="-20%" y="-20%" width="140%" height="140%">
      <feDropShadow dx="0" dy="10" stdDeviation="12" flood-color="#a76517" flood-opacity="0.25"/>
    </filter>
  </defs>
  <g filter="url(#shadow)">
    <g fill="#f6b53d" opacity="0.95">
      <path d="M256 30l22 66h-44z"/>
      <path d="M374 62l-3 69-38-22z"/>
      <path d="M458 154l-50 47-15-41z"/>
      <path d="M480 274l-65 18 4-44z"/>
      <path d="M430 390l-61-31 29-33z"/>
      <path d="M326 470l-53-45 40-17z"/>
      <path d="M186 470l13-62 40 17z"/>
      <path d="M82 390l32-56 29 33z"/>
      <path d="M32 274l61-26 4 44z"/>
      <path d="M54 154l65 6-15 41z"/>
      <path d="M138 62l41 47-38 22z"/>
    </g>
    <circle cx="256" cy="256" r="150" fill="url(#sun)"/>
    <ellipse cx="205" cy="230" rx="42" ry="18" fill="#325746"/>
    <ellipse cx="307" cy="230" rx="42" ry="18" fill="#325746"/>
    <rect x="202" y="223" width="109" height="14" rx="7" fill="#325746"/>
    <circle cx="205" cy="230" r="8" fill="#1f2f28"/>
    <circle cx="307" cy="230" r="8" fill="#1f2f28"/>
    <path d="M196 311c20 22 40 31 60 31s40-9 60-31" fill="none" stroke="#8f4a1e" stroke-width="12" stroke-linecap="round"/>
    <path d="M256 255c-6 12-10 25-10 32 0 8 7 14 16 14" fill="none" stroke="#c16c2d" stroke-width="8" stroke-linecap="round"/>
    <text x="256" y="390" text-anchor="middle" font-family="Arial, Helvetica, sans-serif" font-size="46" font-weight="700" fill="#3f6b3c">George</text>
  </g>
</svg>