<?xml version="1.0" encoding="UTF-8"?><svg xmlns="http://www.w3.org/2000/svg" xmlns:xlink="http://www.w3.org/1999/xlink" id="Layer_1" version="1.1" viewBox="0 0 93 57"><defs><style> .st0 { fill: #fbfcfd; } .st1 { fill: #fff; font-family: MyriadPro-Regular, 'Myriad Pro'; font-size: 9.4px; letter-spacing: .3em; } .st2 { fill: none; } .st3 { fill: #ffc324; } .st4 { display: none; } .st5 { clip-path: url(#clippath); } </style><clipPath id="clippath"><rect class="st2" x=".8" y=".7" width="91.5" height="56"/></clipPath></defs><g class="st4"><g class="st5"><g><path class="st3" d="M33.5,30.4c.2-1.5.6-2.9,1.3-4.2,2.1-4,5.4-6.3,9.8-7.1,4.2-.7,7.9.2,11.2,3,2.5,2.1,3.9,4.8,4.3,8.1v.2h-26.5ZM59.5,22.3c0,0,.2-.1.3-.2,3.5-3.3,6.9-6.5,10.4-9.8.2-.2.4-.3.5-.5.2-.3.5-.3.8-.2.1,0,.2.1.3.2,1.1.7,1.8,1.7,2.2,2.9.2.6.1.8-.5,1.2-4.1,2.7-8.2,5.4-12.3,8.1-.1,0-.2.1-.4.2,0-1.3-.2-1.5-1.5-2h0ZM31.4,26.6c-.4.3-.6.6-.7,1.1,0,.5.1.8.5,1.2-.1,0-.2,0-.3,0l-12.4-.2c-.9,0-1.7,0-2.6,0-.4,0-.6-.2-.7-.5-.3-.7-.3-1.4-.2-2,0-.7.3-1.3.5-1.9.2-.6.4-.7,1.1-.5,3.4.7,6.7,1.3,10,2,1.6.3,3.1.6,4.7.9,0,0,.1,0,.2,0h0ZM40.7,17.7c-1.3,0-1.5,0-2,1.3l-.2-.3c-2.8-4-5.6-7.9-8.4-11.9,0,0,0-.1-.1-.2-.4-.6-.4-.8,0-1.3.9-1,2-1.7,3.3-1.9.5,0,.7,0,.9.5,1.3,2.8,2.6,5.6,3.9,8.4l2.6,5.4h0ZM62.2,29c.7-1,.6-1.3-.2-2.4.6-.1,1.2-.2,1.8-.4l13.2-2.6c.6-.1.8,0,1,.5.5,1.2.7,2.5.4,3.8-.2.7-.3.8-1,.8-5,0-9.9.2-14.9.3,0,0-.1,0-.2,0h0ZM55.3,19.1c-.3-1.1-1-1.5-2-1.2,0-.1,0-.2.1-.3,2-4.4,4.1-8.9,6.1-13.3,0,0,0-.2,0-.2.2-.5.4-.7,1-.6,1.3.2,2.4.9,3.2,1.9.1.2.2.4.3.6,0,.2,0,.3,0,.4-2.8,4.1-5.7,8.3-8.6,12.4,0,0-.1.2-.2.3h0ZM48.2,17.2c-.7-.7-1.5-.8-2.4,0,0-.5,0-.9-.2-1.3-.2-2.4-.5-4.8-.8-7.1-.2-2.3-.5-4.5-.7-6.8,0-.4,0-.6.4-.8.5-.2,1-.4,1.6-.4.8,0,1.5,0,2.3.2.7.2.8.4.8,1.1l-1,13.9c0,.4,0,.8,0,1.2ZM33.8,21.8c-1,.2-1.5.8-1.4,1.9,0,0-.2-.1-.3-.1-4-2.7-8-5.4-12-8.2,0,0-.2-.1-.2-.2-.5-.4-.6-.5-.4-1.1.4-1.3,1.2-2.3,2.4-3,.5-.3.7-.3,1.1.2,3.2,3.1,6.4,6.2,9.6,9.3.4.3.7.7,1.1,1,0,0,.1.1.2.2h0ZM25.5,55.8c-1.5,0-3.2.2-4.9.2h0c.4-.1.8-.2,1.2-.2,2.8-.1,5.7-.3,8.5-.4,3.9-.2,7.8-.4,11.7-.5,4.5-.2,9-.3,13.5-.4,3.7,0,7.3,0,11,0,2,0,4,.3,6,.5.3,0,.6.2.9.3v.2c-.2,0-.4,0-.6,0-.9,0-1.8-.1-2.8-.2-1.3,0-2.6,0-3.9-.1,1.9.3,3.9.2,5.9.6h0c-.7,0-1.3,0-2,0-.7,0-1.3-.2-2-.1-4.3.1-8.7-.1-13,0-5.3.2-10.6.3-15.9.4-5,.2-10.1.4-15.1.6-1.2,0-2.3,0-3.5,0-.2,0-.5,0-.8-.1v-.2c.3,0,.6-.1.9-.2,1.6-.2,3.3-.3,4.7-.5h0Z"/><path class="st0" d="M30.9,34v-.3s0,0,0,0c1.8,0,3.6,0,5.4,0,.7,0,1.3.2,1.9.5,1.1.5,1.6,1.5,1.5,2.7,0,1.3-.7,2.1-1.9,2.5-.2,0-.4.1-.7.2l3.1,5.6h-1.9c0,0-.2-.2-.2-.2-.9-1.5-1.8-3.1-2.6-4.7-.2-.3-.3-.4-.7-.4-.2,0-.4,0-.6,0v5.3h-1.9v-9c0-.4,0-.9,0-1.3,0-.3-.2-.4-.4-.5-.4,0-.7-.2-1.1-.3h0ZM34.4,39c.6,0,1.2,0,1.8-.1,1-.2,1.6-.7,1.7-1.6,0-.5,0-1,0-1.4-.1-.7-.6-1.1-1.3-1.3-.4,0-.9-.2-1.3-.1-.6,0-.8.2-.8.8,0,1.2,0,2.5,0,3.8h0ZM83.6,45.1v-9c0-.4,0-.8,0-1.2,0-.3-.2-.5-.5-.5-.3,0-.7-.2-1.1-.3v-.4c0,0,.2,0,.3,0,1.6,0,3.1,0,4.7,0,.8,0,1.6.1,2.4.3,1.4.4,2.2,1.4,2.6,2.8.4,1.7.4,3.5,0,5.2-.4,1.7-1.6,2.7-3.3,2.9-1.2.2-2.5.2-3.7.2-.4,0-.9,0-1.3,0h0ZM85.5,39.4h0c0,1.4,0,2.7,0,4.1,0,.5.2.7.7.8.5,0,1,0,1.4,0,1.4-.2,2.2-.9,2.5-2.2.4-1.8.4-3.6,0-5.4-.2-1.1-1-1.8-2.1-2-.5,0-1.1-.1-1.6-.1-.8,0-1,.3-1,1.1v3.9h0ZM12.1,39.6v5.5h-1.9v-9c0-.2,0-.5,0-.8,0-.6-.2-.7-.8-.8-.3,0-.5,0-.8-.2v-.4c1.2-.1,2.3-.3,3.5-.4v5.2h4.6v-5.2h1.9v11.6h-1.8v-5.5h-4.6ZM30.3,39.5c-.1.9-.2,1.8-.4,2.6-.5,2-1.8,3.1-3.8,3.2-.7,0-1.3,0-2-.2-1.6-.3-2.5-1.4-2.9-3-.5-1.8-.5-3.7,0-5.6.5-2,1.8-3,3.9-3.1.7,0,1.3,0,2,.2,1.5.3,2.4,1.3,2.8,2.8.3,1,.4,2,.4,3h0,0ZM22.7,39h0c0,.3,0,.6,0,.9,0,1,.1,2.1.6,3.1.3.7.8,1.3,1.7,1.4,1.5.3,2.7-.4,3-2,.3-1.4.3-2.8.2-4.2,0-.8-.2-1.5-.4-2.3-.2-.8-.8-1.3-1.7-1.5-1.5-.3-2.7.4-3.1,2-.2.9-.3,1.8-.4,2.7h0ZM44.2,38.7c.8,0,1.5,0,2.3,0,.7,0,1-.6,1.1-1.3h.5v3.5h-.5c0,0,0-.2,0-.3,0-.7-.5-1.1-1.2-1.1-.7,0-1.5,0-2.2,0,0,.1,0,.2,0,.3v3.5c0,.8.2.9.9.9h1.9c1.1,0,1.4-.3,1.6-1.4,0,0,0-.2,0-.2,0,0,.2,0,.2,0h.2v2.4h-6.8v-9c0-.4,0-.8,0-1.2,0-.3-.2-.5-.5-.6-.3,0-.7-.2-1-.2v-.4h8.1v2.5h-.4c0-.2,0-.4,0-.6-.1-.6-.5-1-1-1-.9,0-1.7,0-2.6,0s-.5.2-.5.5c0,1.2,0,2.5,0,3.8h0ZM63.7,33.7h8.1v2.5h-.4c0-.2,0-.4,0-.6-.1-.6-.5-.9-1-1-.8,0-1.7,0-2.6,0s-.5.2-.5.6c0,.8,0,1.7,0,2.5v1.1c.8,0,1.7,0,2.5,0,.5,0,.8-.3.9-.8,0-.2,0-.3.1-.5h.5v3.5h-.4c0,0,0-.1,0-.2-.1-.9-.5-1.3-1.4-1.3h-2c0,.1,0,.2,0,.3v3.4c0,0,0,.2,0,.3,0,.6.2.8.8.8.8,0,1.6,0,2.3,0,.7,0,1.1-.3,1.3-1.1,0-.2,0-.4,0-.6h.4v2.4h-6.8v-9c0-.4,0-.8,0-1.2,0-.2-.2-.5-.4-.5-.3,0-.7-.2-1.1-.3v-.4h0ZM7.4,33.8v1.2c-.5-.2-.9-.4-1.4-.5-.5-.1-1.1-.2-1.6-.2-.6,0-1.1.2-1.4.8-.3.6-.3,1.2,0,1.7.3.4.8.8,1.2,1.1.8.5,1.7.9,2.5,1.4,1.8,1,2.1,3.7.6,5-.6.6-1.4.8-2.2.9-1.3.2-2.6,0-3.8-.3,0,0-.2-.2-.2-.2,0-.4,0-.8,0-1.2.1,0,.2.1.3.2.9.5,2,.9,3.1.9.2,0,.4,0,.7,0,1.2-.3,1.8-1.8,1-2.8-.3-.4-.8-.8-1.2-1.1-.8-.5-1.6-.9-2.4-1.4-1.2-.7-1.9-2.1-1.5-3.5.3-1.2,1.2-1.7,2.3-2,1.2-.3,2.5-.1,3.7,0,.1,0,.3,0,.4,0h0ZM49.9,34v-.3h8.1v2.5h-.4s0,0,0-.1c0-1-.5-1.5-1.5-1.5-.7,0-1.3,0-2,0-.5,0-.7.2-.7.7,0,1.2,0,2.4,0,3.6.8,0,1.6,0,2.4,0,.7,0,.9-.4,1.1-1.3h.5v3.5h-.5c0,0,0-.2,0-.3,0-.6-.4-1-1-1.1-.8,0-1.6,0-2.4,0v5.5h-1.9v-9c0-.4,0-.8,0-1.2,0-.2-.2-.5-.4-.5-.3,0-.7-.2-1.1-.3h0ZM81.5,45.1h-6.9v-9c0-.3,0-.6,0-.9,0-.5-.1-.6-.7-.8-.3,0-.6-.1-.9-.2v-.4l3.6-.4v9.4c0,.3,0,.7,0,1,0,.2.1.4.3.4,1.1,0,2.1,0,3.2,0,.6,0,.9-.5,1-1.1,0-.2,0-.3,0-.5h.4v2.4h0ZM62.3,45.1h-1.8v-9c0-.3,0-.6,0-1,0-.3-.2-.5-.5-.6-.3,0-.7-.2-1.1-.2v-.4l3.5-.4v11.6h0ZM25.5,48.2c-.4,1.3-.7,2.5-1,3.7,0,.1-.1.2-.2.3,0,0-.2-.2-.2-.3-.4-1.4-.8-2.7-1.1-4.1.2,0,.3,0,.4.2.3,1.2.6,2.3,1,3.6.4-1.3.7-2.5,1.1-3.8.2,0,.4,0,.4.2.3,1.2.7,2.3,1,3.6.1-.5.3-1,.4-1.5.2-.7.4-1.4.6-2.2,0-.2.1-.3.4-.2-.2.8-.4,1.6-.7,2.4-.2.6-.3,1.1-.5,1.7,0,.1-.1.2-.2.3,0,0-.2-.2-.2-.3-.3-1.2-.7-2.3-1-3.5,0,0,0-.1,0-.2h0ZM32.9,48.3v3.9h0c0,0-.2,0-.2-.1,0-1.4,0-2.8,0-4.2.2-.1.3,0,.5.2.8,1.1,1.5,2.3,2.3,3.4,0,0,.1.2.2.3v-3.7c0-.2,0-.3.3-.2v4.5c-.2-.1-.3-.2-.4-.3-.8-1.1-1.5-2.2-2.3-3.4,0,0-.1-.2-.2-.3h0ZM18.8,50c0,.2,0,.5-.1.8-.2,1-.9,1.6-2,1.5-.9,0-1.7-.6-1.9-1.6,0-.5,0-1,0-1.5.2-1,1-1.5,2-1.5.9,0,1.6.6,1.8,1.6,0,.2,0,.5,0,.7h0ZM15.1,50c0,.2,0,.5.2.8.2.7.7,1.1,1.5,1.1s1.3-.4,1.5-1.1c.1-.5.1-1,0-1.5-.1-.9-.7-1.4-1.6-1.4s-1.4.5-1.6,1.4c0,.2,0,.4,0,.7h0ZM48.2,50.3v1.9c-.2,0-.3,0-.3-.2v-4.1s0,0,0-.1c.6,0,1.2,0,1.7.1.5,0,.8.5.9,1,0,.5-.2,1-.7,1.2h-.3c0,.1,1.2,2.1,1.2,2.1-.2,0-.3,0-.5-.1-.3-.5-.6-1-.9-1.5,0-.2-.2-.2-.4-.2-.3,0-.5,0-.8,0h0ZM48.2,50c.5,0,.9,0,1.3,0,.5,0,.7-.5.7-1,0-.5-.2-.8-.8-.9-.4,0-.8,0-1.3,0v2h0ZM62.5,47.8v1.9h2.6v-1.9c.1,0,.2,0,.3,0v4.4c0,0-.2,0-.3,0v-2.2h-2.6v2.1c-.2,0-.3,0-.3-.2v-4c0-.2,0-.3.3-.2h0ZM40.8,52.2v-4.4h2.2c0,0,.2,0,.2.2,0,0,0,0,0,0h-2.1v1.7h1.8c.2,0,.3,0,.2.3h-1.9v1.9h2.1c0,.2-.1.3-.2.3-.7,0-1.5,0-2.2,0h0ZM75.8,50.3v1.8h0c0,0-.2,0-.2-.2,0-1.4,0-2.8,0-4.3.6,0,1.2,0,1.8.1.5,0,.8.5.9,1s-.2,1-.7,1.2c-.3.1-.6.2-.9.2-.2,0-.5,0-.8,0h0ZM75.8,50.1c.5,0,1,0,1.5-.2.4,0,.5-.5.5-.9s-.1-.7-.5-.9c-.5-.2-1-.1-1.5-.1v2.1h0ZM57.5,47.9c0,.2,0,.2-.3.2-.4,0-.8-.1-1.3,0-.4,0-.6.3-.7.7,0,.4,0,.7.5.9.3.2.6.2,1,.4.7.3,1,.7.9,1.3,0,.5-.5.9-1.2,1-.4,0-.9,0-1.3,0-.2,0-.3-.1-.2-.3.4,0,.9.1,1.3.1.3,0,.6-.1.8-.3.3-.2.4-.7.2-1.1,0,0-.2-.2-.3-.2-.4-.2-.9-.4-1.3-.6-.4-.2-.6-.5-.7-.9,0-.6.3-1,.8-1.2.6-.2,1.2,0,1.7.1h0ZM70.6,47.8v4.4c-.2,0-.3,0-.3-.2v-4c0-.2,0-.3.3-.2h0Z"/></g></g></g><g class="st4"><g><path class="st3" d="M33.7,30.2c.2-1.5.6-2.8,1.3-4.1,2.1-3.9,5.3-6.2,9.6-7,4.1-.7,7.8.2,11,2.9,2.4,2.1,3.8,4.7,4.2,7.9v.2h-26Z"/><path class="st3" d="M59.2,22.3c0,0,.2-.1.3-.2,3.4-3.2,6.8-6.4,10.2-9.6.2-.2.4-.3.5-.5.2-.3.5-.3.8-.2.1,0,.2.1.3.2,1.1.7,1.8,1.7,2.2,2.9.2.6,0,.8-.4,1.2-4,2.6-8,5.3-12,7.9-.1,0-.2.1-.4.2,0-1.2-.2-1.5-1.4-2Z"/><path class="st3" d="M31.5,26.5c-.4.3-.6.6-.6,1.1,0,.5.1.8.4,1.2-.1,0-.2,0-.3,0-4.1,0-8.1-.1-12.2-.2-.8,0-1.7,0-2.5,0-.4,0-.6-.2-.7-.5-.3-.6-.3-1.3-.2-2,0-.6.2-1.3.5-1.9.2-.6.5-.6,1.1-.5,3.3.6,6.6,1.3,9.9,2,1.5.3,3,.6,4.6.9,0,0,.1,0,.2,0h0Z"/><path class="st3" d="M40.7,17.8c-1.3,0-1.5,0-2,1.2,0-.1-.2-.2-.2-.3-2.8-3.9-5.5-7.8-8.2-11.7,0,0,0-.1-.1-.2-.4-.6-.4-.8,0-1.3.9-1,1.9-1.7,3.3-1.9.5,0,.7,0,.9.5,1.3,2.7,2.6,5.5,3.9,8.2.8,1.8,1.7,3.5,2.5,5.3h0Z"/><path class="st3" d="M61.9,28.8c.6-1,.6-1.3-.2-2.3.6-.1,1.2-.2,1.7-.4,4.3-.9,8.6-1.7,12.9-2.5.6-.1.8,0,1,.5.5,1.2.7,2.4.3,3.7-.2.6-.3.8-1,.8-4.9,0-9.8.2-14.6.3,0,0-.1,0-.2,0Z"/><path class="st3" d="M55,19.2c-.3-1.1-.9-1.4-2-1.2,0-.1,0-.2.1-.3,2-4.4,4-8.7,6-13.1,0,0,0-.2,0-.2.2-.5.4-.7,1-.6,1.3.3,2.3.9,3.2,1.9.1.2.2.4.3.6,0,.1,0,.3,0,.4-2.8,4.1-5.6,8.1-8.4,12.2,0,0-.1.2-.2.3h0Z"/><path class="st3" d="M48.1,17.3c-.7-.7-1.5-.8-2.3,0,0-.5,0-.9-.2-1.3-.2-2.3-.5-4.7-.7-7-.2-2.2-.5-4.4-.7-6.7,0-.4,0-.6.4-.8.5-.2,1-.3,1.6-.4.8,0,1.5,0,2.2.2.7.2.8.4.7,1.1-.3,4.5-.6,9.1-.9,13.6,0,.4,0,.8,0,1.2h0Z"/><path class="st3" d="M34,21.8c-1,.2-1.5.8-1.4,1.8,0,0-.2-.1-.3-.1-3.9-2.7-7.9-5.3-11.8-8,0,0-.2-.1-.2-.2-.5-.3-.6-.5-.4-1.1.4-1.2,1.2-2.2,2.3-2.9.5-.3.7-.2,1.1.2,3.1,3.1,6.3,6.1,9.4,9.1.3.3.7.7,1,1,0,0,.1.1.2.2Z"/><path class="st3" d="M68.8,54.8c-.2,0-.4,0-.5,0-1.2,0-2.4-.1-3.6-.2-.6,0-1.3,0-1.8,0,1.5.2,3.2.2,4.8.5h0c-.4,0-.7,0-1.1,0-.7,0-1.5-.2-2.2-.2-2.8.1-5.6-.1-8.4,0-5.2.1-10.5.2-15.7.4-4.7.2-9.4.4-14,.6-.5,0-1,0-1.5,0-.2,0-.4,0-.5,0h0c.3-.2.5-.2.8-.3,1.4-.1,2.7-.3,3.9-.4-1.2,0-2.6.1-4,.2h0c.3-.1.7-.2,1-.2,3.1-.2,6.3-.3,9.5-.5,4.1-.2,8.1-.3,12.2-.5,5.3-.2,10.6-.3,15.9-.1,1.6,0,3.1.2,4.7.4.3,0,.5.1.8.2,0,0,0,0,0,.1h0Z"/></g><path d="M37.4,39.2c1,1.8,2,3.6,3,5.5-.6,0-1.2,0-1.8,0,0,0-.2-.1-.2-.2-.9-1.5-1.8-3.1-2.6-4.6-.2-.3-.3-.4-.6-.4-.2,0-.4,0-.6,0v5.2h-1.9v-8.8c0-.4,0-.9,0-1.3,0-.2-.2-.4-.4-.5-.4,0-.7-.2-1.1-.3v-.3c0,0,.2,0,.2,0,1.4,0,2.9,0,4.3,0,.8,0,1.7.1,2.5.4,1.6.6,2.2,2.2,1.5,3.8-.3.8-1,1.2-1.8,1.4-.2,0-.3,0-.5.1h0ZM34.6,38.8c.7,0,1.4,0,2-.2.8-.2,1.3-.7,1.4-1.5,0-.4,0-.8,0-1.2-.1-.8-.6-1.3-1.5-1.5-.3,0-.7,0-1.1,0-.7,0-.9.2-.9.9,0,1.2,0,2.3,0,3.6h0Z"/><path d="M81.3,33.8v-.4h.3c1.5,0,3,0,4.5,0,.7,0,1.4,0,2.1.2,1.6.3,2.5,1.3,2.9,2.8.4,1.7.4,3.4,0,5.1-.4,1.7-1.5,2.7-3.2,2.9-1.1.1-2.2.2-3.3.2-.5,0-1.1,0-1.7,0v-8.9c0-.4,0-.8,0-1.2,0-.3-.2-.5-.5-.6-.3,0-.7-.2-1-.3h0ZM89.6,39c-.1-.9-.2-1.8-.3-2.7-.2-.8-.7-1.5-1.5-1.8-.8-.3-1.7-.4-2.5-.2-.3,0-.5.3-.6.6,0,.2,0,.3,0,.5v6.6c0,.4,0,.7,0,1.1,0,.5.2.7.7.7.5,0,1,0,1.5,0,1.4-.2,2.1-.8,2.4-2.2.2-.8.2-1.7.3-2.6h0Z"/><path d="M9.2,34.1s0,0,0-.1v-.2c.6,0,1.2-.1,1.7-.2.6,0,1.1-.1,1.8-.2v5.1h4.5v-5.1h1.8v11.3h-1.8v-5.4h-4.5v5.4h-1.9v-8.8c0-.2,0-.5,0-.7,0-.6-.2-.8-.8-.9-.2,0-.5,0-.8-.1h0Z"/><path d="M30.5,39.2c-.1.9-.2,1.7-.4,2.6-.5,2-1.7,3-3.7,3.1-.7,0-1.4,0-2-.2-1.6-.3-2.5-1.4-2.8-2.9-.5-1.8-.5-3.7,0-5.5.5-1.9,1.8-2.9,3.8-3,.6,0,1.3,0,1.9.1,1.4.3,2.2,1.2,2.7,2.5.3,1,.4,2.1.5,3.2h0ZM23.1,38.5c0,.9,0,1.5.1,2,0,.8.2,1.5.6,2.2.3.7.8,1.1,1.6,1.3,1.5.3,2.6-.4,3-2,.3-1.4.3-2.8.2-4.2,0-.8-.1-1.6-.5-2.4-.3-.7-.8-1.2-1.6-1.3-1.5-.3-2.6.4-3,1.9-.2.9-.3,1.8-.4,2.4h0Z"/><path d="M42.3,44.7v-8.9c0-.4,0-.8,0-1.2,0-.3-.2-.5-.5-.6-.3,0-.7-.2-1-.2v-.4h8v2.4h-.4c0-.2,0-.4,0-.6-.1-.6-.5-1-1-1-.8,0-1.7,0-2.5,0s-.5.2-.5.5c0,1.2,0,2.4,0,3.7.8,0,1.5,0,2.3,0,.7,0,1-.6,1-1.2h.5v3.5h-.4c0,0,0-.2,0-.3,0-.7-.5-1.1-1.1-1.1-.7,0-1.5,0-2.2,0,0,.1,0,.2,0,.3v3.3h0c0,.9.2,1,.9,1h1.8c1.1,0,1.4-.3,1.6-1.3,0,0,0-.2,0-.2h.4v2.4h-6.7,0Z"/><path d="M66.8,38.4c.7,0,1.5,0,2.2,0,.6,0,.9-.3,1.1-.9,0-.1,0-.2,0-.3h.4v3.5h-.4c0,0,0-.2,0-.3,0-.6-.4-1-1-1.1-.8,0-1.5,0-2.3,0,0,.1,0,.2,0,.3v3.2c0,.1,0,.3,0,.4,0,.5.2.7.7.7.8,0,1.7,0,2.5,0,.7,0,1-.3,1.1-1,0-.2,0-.4.1-.6h.4v2.4h-6.7v-8.9c0-.4,0-.8,0-1.2,0-.3-.2-.4-.4-.5-.3,0-.7-.2-1-.3v-.3h8v2.4h-.4c0-.2,0-.4,0-.6-.1-.6-.5-1-1-1-.8,0-1.7,0-2.5,0s-.5.2-.5.5v3.7h0Z"/><path d="M1.8,43.1c.2,0,.3.1.4.2.9.5,1.9.9,3,.8,1,0,1.6-.5,1.8-1.3.2-.8,0-1.5-.5-2-.3-.3-.6-.5-.9-.7-.8-.5-1.6-.9-2.4-1.4-1.2-.7-1.8-2.1-1.4-3.4.3-1.2,1.2-1.7,2.3-1.9,1.2-.3,2.4-.1,3.6,0,.1,0,.2,0,.3,0,0,0,0,0,0,0v1.2c-.2,0-.4-.2-.6-.3-.8-.3-1.5-.5-2.3-.5s-1.1.2-1.4.8c-.3.6-.3,1.2,0,1.7.3.4.8.8,1.2,1.1.8.5,1.6.9,2.4,1.4,1.8,1,2.1,3.6.6,4.9-.6.5-1.3.8-2.1.9-1.3.2-2.6,0-3.9-.3,0,0-.2,0-.2-.2,0-.4,0-.8,0-1.2h0Z"/><path d="M53.2,38.4c.8,0,1.5,0,2.3,0,.5,0,.9-.3,1-.9,0-.1,0-.2,0-.4h.5v3.5h-.4c0,0,0-.2,0-.3,0-.7-.4-1.1-1.1-1.1-.7,0-1.5,0-2.2,0v5.4h-1.8v-8.9c0-.4,0-.8,0-1.2,0-.3-.2-.5-.5-.5-.3,0-.7-.2-1-.3v-.3h8v2.4h-.4s0,0,0-.2c0-1-.6-1.5-1.5-1.5-.6,0-1.3,0-1.9,0-.5,0-.7.2-.7.7,0,1.2,0,2.3,0,3.5h0Z"/><path d="M72.3,34.1v-.4c1.1-.1,2.3-.3,3.5-.4v9.2c0,.3,0,.7,0,1,0,.2.1.4.4.4,1.1,0,2.1,0,3.1,0,.5,0,.8-.5.9-1,0-.2,0-.3,0-.5h.4v2.4h-6.8v-8.8c0-.3,0-.6,0-.9,0-.3-.2-.6-.5-.6-.3,0-.7-.2-1.1-.2h0Z"/><path d="M61.9,33.3v11.4h-1.8v-8.8c0-.3,0-.6,0-.9,0-.3-.2-.5-.5-.6-.3,0-.7-.2-1.1-.2v-.4c1.2-.1,2.3-.3,3.5-.4h0Z"/><path d="M31.7,49.5c0,.2,0,.5-.1.7-.2,1-.9,1.5-1.9,1.5-.9,0-1.7-.6-1.8-1.6,0-.5,0-1,0-1.4.2-1,.9-1.5,2-1.5.9,0,1.6.6,1.8,1.5,0,.2,0,.5,0,.7h0ZM31.4,49.4c0-.2,0-.5-.1-.8-.2-.7-.7-1.1-1.4-1.1-.8,0-1.3.3-1.5,1-.2.5-.2,1.1,0,1.7.2.9.8,1.3,1.6,1.3.8,0,1.3-.5,1.5-1.3,0-.2,0-.4,0-.7Z"/><path d="M48.3,47.3c.6,0,1.2,0,1.8,0,.8,0,1.3.6,1.4,1.3,0,.5,0,1.1,0,1.6-.2.8-.8,1.3-1.8,1.4-.4,0-.9,0-1.3,0v-4.4h0ZM48.7,47.5v3.8c.9,0,1.8.2,2.4-.8.4-.8.5-1.6,0-2.3-.5-.9-1.5-.7-2.4-.7Z"/><path d="M22.9,49.2v-1.7c0-.2,0-.3.3-.2v4.3c-.2,0-.3,0-.3-.2v-1.9h-2.5v2.1c-.2,0-.3,0-.3-.2v-3.9c0,0,.1-.2.2-.2,0,0,0,0,.1,0v1.9h2.6Z"/><path d="M59.3,51.6c-.2,0-.3,0-.4-.2-.1-.4-.3-.7-.4-1.1,0-.2-.1-.2-.3-.2-.4,0-.9,0-1.3,0-.1,0-.2.1-.3.2-.2.4-.3.7-.4,1.1,0,.2-.2.3-.4.2.2-.5.4-1,.6-1.5.3-.8.7-1.7,1-2.6,0,0,.1-.2.2-.2,0,0,.2.2.2.2.5,1.3,1.1,2.7,1.6,4.1h0ZM57.5,47.8c-.3.7-.5,1.3-.8,2h1.5c-.2-.7-.5-1.3-.8-2Z"/><path d="M72.7,47.4c0,.2,0,.2-.3.2-.4,0-.8-.1-1.2,0-.4,0-.6.3-.7.7,0,.4,0,.7.5.9.3.1.6.2.9.4.7.3.9.7.9,1.3,0,.5-.5.9-1.2,1-.4,0-.8,0-1.3,0,0,0-.2-.2-.3-.2,0,0,0,0,0,0,.4,0,.8.1,1.3.1.3,0,.6-.1.8-.3.5-.3.4-1,0-1.3-.4-.2-.8-.4-1.3-.6-.4-.2-.6-.4-.6-.9,0-.6.3-1,.8-1.2.6-.2,1.1,0,1.6.1h0Z"/><path d="M66.1,47.3c-.4.8-.8,1.5-1.2,2.2-.1.2-.2.5-.2.8,0,.4,0,.8,0,1.2h-.3c0-.5,0-.9,0-1.4,0-.2,0-.4-.1-.5-.4-.7-.8-1.4-1.1-2.1,0,0,0-.2-.2-.3.2,0,.3,0,.5.2.4.7.7,1.4,1.1,2.1.1-.3.3-.5.4-.7.3-.5.5-1,.8-1.5,0-.1.2-.2.3-.3,0,0,0,0,0,.1h0Z"/><path d="M36.7,47.3v4.1h1.8c.2,0,.3,0,.2.2h-2.3c0,0,0-.1,0-.2v-3.9c0-.2,0-.3.3-.2h0Z"/><path d="M43.4,47.3v4.3c-.2,0-.3,0-.3-.2v-3.9c0-.2,0-.3.3-.2h0Z"/></g><path class="st3" d="M34.5,30c.2-1.4.6-2.7,1.2-4,2-3.7,5.1-6,9.3-6.7,3.9-.7,7.5.2,10.6,2.8,2.4,2,3.7,4.6,4,7.7,0,0,0,.1,0,.2h-25.1Z"/><path class="st3" d="M59.1,22.4c0,0,.2-.1.3-.2,3.3-3.1,6.6-6.2,9.8-9.3.2-.2.3-.3.5-.5.2-.3.5-.3.7-.2.1,0,.2.1.3.2,1,.7,1.7,1.6,2.1,2.8.2.6.1.8-.4,1.1-3.9,2.5-7.8,5.1-11.6,7.7-.1,0-.2.1-.4.2,0-1.2-.2-1.4-1.4-1.9Z"/><path class="st3" d="M32.4,26.4c-.4.3-.6.6-.6,1,0,.4.1.8.4,1.1-.1,0-.2,0-.3,0-3.9,0-7.9-.1-11.8-.2-.8,0-1.6,0-2.4,0-.4,0-.6-.2-.7-.5-.3-.6-.3-1.3-.2-1.9,0-.6.2-1.2.5-1.8.2-.6.4-.6,1-.5,3.2.6,6.4,1.3,9.5,1.9,1.5.3,3,.6,4.4.9,0,0,0,0,.2,0Z"/><path class="st3" d="M41.3,17.9c-1.3,0-1.4,0-1.9,1.2,0-.1-.1-.2-.2-.3-2.7-3.8-5.3-7.5-8-11.3,0,0,0-.1-.1-.2-.4-.5-.4-.7,0-1.2.8-1,1.9-1.6,3.2-1.8.5,0,.6,0,.9.5,1.2,2.6,2.5,5.3,3.7,7.9.8,1.7,1.6,3.4,2.4,5.2Z"/><path class="st3" d="M61.7,28.6c.6-.9.6-1.2-.2-2.2.6-.1,1.1-.2,1.7-.3,4.2-.8,8.3-1.6,12.5-2.5.6-.1.7,0,1,.5.5,1.1.6,2.3.3,3.6-.1.6-.3.7-1,.7-4.7,0-9.4.2-14.1.3,0,0-.1,0-.2,0Z"/><path class="st3" d="M55.1,19.3c-.3-1-.9-1.4-1.9-1.2,0-.1,0-.2.1-.3,1.9-4.2,3.9-8.4,5.8-12.6,0,0,0-.2.1-.2.2-.5.4-.6,1-.5,1.2.2,2.3.8,3.1,1.8.1.2.2.4.3.5,0,.1,0,.3,0,.4-2.7,3.9-5.4,7.8-8.1,11.8,0,0-.1.2-.2.3Z"/><path class="st3" d="M48.4,17.5c-.7-.7-1.5-.7-2.2,0,0-.4,0-.8-.1-1.3-.2-2.3-.5-4.5-.7-6.8-.2-2.2-.5-4.3-.7-6.5,0-.4,0-.6.4-.7.5-.2,1-.3,1.5-.4.7,0,1.5,0,2.2.2.7.2.8.4.7,1.1-.3,4.4-.6,8.8-.9,13.1,0,.4,0,.7,0,1.2Z"/><path class="st3" d="M34.8,21.9c-.9.2-1.5.8-1.4,1.8,0,0-.2,0-.2-.1-3.8-2.6-7.6-5.2-11.4-7.7,0,0-.2-.1-.2-.2-.5-.3-.6-.5-.4-1.1.4-1.2,1.2-2.2,2.2-2.8.5-.3.7-.2,1.1.2,3,2.9,6.1,5.9,9.1,8.8.3.3.7.7,1,1,0,0,.1.1.2.2Z"/><path class="st3" d="M72.3,53.7c-.2,0-.4,0-.5,0-.9,0-1.7-.1-2.6-.2-1.2,0-2.5,0-3.7,0,.9,0,1.9.1,2.8.2.9,0,1.8.2,2.8.3,0,0,0,0,0,.1-.2,0-.4,0-.6,0-1.1,0-2.1-.3-3.2-.2-4.5,0-9-.1-13.5,0-4.2.1-8.5.2-12.7.4-3.4.1-6.8.3-10.3.4-2.8.1-5.5.2-8.3.3-.3,0-.6,0-.9,0,0,0,0,0,0-.1.2,0,.3-.1.5-.2,1.6-.3,3.1-.4,4.7-.4.1,0,.3,0,.4,0,0,0,0,0,0,0-1.6,0-3.2.2-4.8.2,0,0,0,0,0,0,.4,0,.7,0,1.1-.1,3.1-.2,6.2-.3,9.3-.5,4.4-.2,8.8-.4,13.2-.5,6.7-.2,13.4-.4,20.1-.2,1.8,0,3.6.3,5.3.4.3,0,.6,0,.9.4Z"/><path d="M41,43.9c-.6,0-1.1,0-1.7,0-.1,0-.3-.1-.3-.2-.8-1.5-1.7-2.9-2.5-4.4-.2-.3-.3-.4-.7-.4-.2,0-.3,0-.5,0v5h-1.8c0-.1,0-.3,0-.4,0-2.7,0-5.4,0-8.1,0-.4,0-.8,0-1.2,0-.2-.2-.4-.4-.4-.3,0-.7-.2-1-.3v-.3c0,0,.2,0,.2,0,1.4,0,2.8,0,4.1,0,.8,0,1.7.1,2.5.4,1.5.6,2.1,2.2,1.4,3.7-.3.6-.7.9-1.3,1.2-.3.1-.6.2-.9.3,1,1.8,1.9,3.5,2.9,5.3ZM35.4,38.2c.7,0,1.4,0,2-.2.8-.2,1.3-.7,1.4-1.5,0-.3,0-.7,0-1-.1-.9-.6-1.5-1.5-1.6-.3,0-.6,0-1,0-.6,0-.8.2-.9.8,0,.7,0,1.5,0,2.2,0,.4,0,.8,0,1.3Z"/><path d="M82,43.9v-.4c0-2.7,0-5.4,0-8.2,0-.4,0-.8,0-1.1,0-.3-.2-.5-.5-.6-.3,0-.6-.2-1-.2v-.4h.3c1.4,0,2.9,0,4.3,0,.7,0,1.3,0,2,.2,1.5.3,2.4,1.3,2.8,2.7.4,1.6.4,3.3,0,4.9-.4,1.6-1.5,2.6-3.1,2.8-1.1.1-2.1.2-3.2.2-.5,0-1,0-1.6,0ZM83.7,38.5s0,0,0,0c0,1.3,0,2.6,0,3.9,0,.5.2.7.6.7.5,0,1,0,1.4,0,1.3-.2,2-.8,2.4-2.1.1-.5.2-.9.2-1.4,0-1.2,0-2.5-.2-3.7-.2-1-.9-1.7-1.9-1.9-.5,0-1-.1-1.5-.1-.8,0-1,.2-1,1,0,1.2,0,2.4,0,3.7Z"/><path d="M14.2,38.7v5.2h-1.8c0-.1,0-.3,0-.4,0-2.7,0-5.4,0-8.2,0-.2,0-.5,0-.7,0-.6-.2-.7-.8-.9-.2,0-.5,0-.7-.1v-.4c1.1-.1,2.2-.2,3.4-.4v4.9h4.4v-4.9h1.8v11h-1.7v-5.2h-4.4Z"/><path d="M31.4,38.6c-.1.8-.2,1.7-.3,2.5-.4,1.9-1.6,2.9-3.6,3-.6,0-1.3,0-1.9-.1-1.5-.3-2.4-1.3-2.7-2.8-.4-1.7-.4-3.5,0-5.3.5-1.9,1.7-2.8,3.7-2.9.6,0,1.2,0,1.8.1,1.3.3,2.2,1.1,2.6,2.4.3,1,.4,2,.5,3.1ZM24.2,38.2s0,0,0,0c0,.3,0,.6,0,.8,0,1,.1,2,.6,2.9.3.7.8,1.2,1.6,1.4,1.4.3,2.5-.4,2.9-1.9.3-1.3.3-2.7.2-4,0-.7-.2-1.5-.4-2.2-.2-.8-.8-1.3-1.6-1.4-1.4-.3-2.5.4-2.9,1.9-.2.8-.3,1.7-.4,2.6Z"/><path d="M49,35.5h-.4c0-.2,0-.4,0-.6-.1-.5-.4-.9-1-.9-.8,0-1.6,0-2.4,0-.3,0-.5.2-.5.6,0,.8,0,1.6,0,2.4,0,.4,0,.7,0,1.1.8,0,1.6,0,2.3,0,.4,0,.7-.3.8-.7,0-.1,0-.3.1-.4h.4v3.4h-.4c0,0,0-.1,0-.2-.1-.9-.5-1.2-1.3-1.2-.6,0-1.3,0-1.9,0,0,.1,0,.2,0,.3,0,1.1,0,2.2,0,3.2,0,0,0,.2,0,.3,0,.6.2.7.7.7.7,0,1.5,0,2.2,0,.7,0,1.1-.3,1.2-1,0-.2,0-.3,0-.5h.4v2.3h-6.4v-.4c0-2.7,0-5.5,0-8.2,0-.4,0-.7,0-1.1,0-.3-.2-.5-.5-.6-.3,0-.6-.2-.9-.2v-.3h7.7v2.4Z"/><path d="M64.6,43.9v-.4c0-2.7,0-5.4,0-8.2,0-.4,0-.8,0-1.1,0-.3-.2-.5-.5-.6-.3,0-.6-.2-1-.2v-.3h7.7v2.4h-.4c0-.2,0-.4,0-.6-.1-.6-.5-.9-1-1-.8,0-1.6,0-2.4,0-.3,0-.5.2-.5.5,0,1.2,0,2.4,0,3.5.7,0,1.5,0,2.2,0,.7,0,.9-.6,1-1.2h.5v3.4h-.4c0,0,0-.2,0-.3,0-.7-.4-1-1.1-1.1-.7,0-1.4,0-2.1,0,0,.1,0,.2,0,.3,0,1.1,0,2.1,0,3.2,0,0,0,0,0,.1,0,.7.2.9.9.9.6,0,1.2,0,1.8,0,1,0,1.4-.3,1.5-1.3,0,0,0-.1,0-.2h.4v2.3h-6.4Z"/><path d="M3.7,42.5c.8.3,1.5.6,2.2.8.4.1.9.1,1.4,0,1.3-.2,2-1.7,1.2-2.8-.3-.4-.7-.7-1.1-1-.7-.5-1.5-.9-2.3-1.3-1.2-.7-1.7-2-1.4-3.3.3-1.1,1.2-1.6,2.2-1.8,1.2-.3,2.5,0,3.7.1,0,0,.2.1.2.2,0,.3,0,.6,0,1-.1,0-.2,0-.3-.1-.8-.4-1.6-.6-2.5-.6-.6,0-1.1.2-1.4.7-.3.6-.3,1.2,0,1.7.3.4.7.7,1.1,1,.7.5,1.5.8,2.2,1.3,1.3.7,1.9,2.1,1.5,3.5-.3,1-.9,1.6-1.9,1.9-1.2.4-2.4.4-3.6.2-.4,0-.7-.2-1.1-.2-.2,0-.3,0-.2-.3,0-.3,0-.7,0-1Z"/><path d="M57,40h-.4c0-.1,0-.2,0-.3,0-.6-.4-1-1-1-.7,0-1.5,0-2.3,0v5.2h-1.8v-.4c0-2.7,0-5.5,0-8.2,0-.4,0-.8,0-1.2,0-.3-.2-.4-.4-.5-.3,0-.7-.2-1-.3v-.3h7.7v2.3h-.4s0,0,0-.1c0-.9-.5-1.4-1.4-1.5-.7,0-1.3,0-2,0-.4,0-.6.2-.6.6,0,1.1,0,2.3,0,3.4.8,0,1.5,0,2.2,0,.7,0,.9-.6,1-1.2h.5v3.4Z"/><path d="M71.8,33.3c1.1-.1,2.2-.2,3.4-.4,0,.1,0,.3,0,.4,0,2.8,0,5.7,0,8.5,0,.3,0,.7,0,1,0,.1.2.3.3.3,1,0,2,0,3.1,0,.5,0,.8-.4.9-1,0-.1,0-.3,0-.4h.4s0,0,0,0c0,.7,0,1.4,0,2.2h-6.6c0-.1,0-.3,0-.4,0-2.7,0-5.4,0-8.1,0-.3,0-.6,0-.9,0-.3-.2-.6-.5-.6-.3,0-.7-.1-1-.2v-.4Z"/><path d="M61.8,43.9h-1.7c0-.1,0-.3,0-.4,0-2.7,0-5.4,0-8.2,0-.3,0-.6,0-.9,0-.3-.2-.5-.5-.6-.3,0-.7-.1-1-.2v-.4c1.1-.1,2.2-.2,3.3-.4v11Z"/><text class="st1" transform="translate(18.9 -7.1)"><tspan x="0" y="0">HOLIDAYS</tspan></text><image width="1292" height="1052" transform="translate(96.8 -.3) scale(0)" xlink:href="../../../../../../Branding/Brand Guidelines/Company Logos/Oakdene Ownership Logo/OD_Ownership_Logo_Mat.png"/><g><path d="M17.6,45.2v2.8h3.2v-2.8h.9v6.6h-.9v-3.1h-3.2v3.1h-.8v-6.6h.8Z"/><path d="M31.7,48.5c0,2.3-1.4,3.5-3.1,3.5s-3-1.3-3-3.3,1.3-3.5,3.1-3.5,3,1.4,3,3.3ZM26.6,48.6c0,1.4.8,2.7,2.1,2.7s2.1-1.2,2.1-2.7-.7-2.7-2.1-2.7-2.1,1.3-2.1,2.7Z"/><path d="M35.7,45.2h.8v5.9h2.8v.7h-3.7v-6.6Z"/><path d="M44.1,45.2v6.6h-.8v-6.6h.8Z"/><path d="M48.6,45.3c.5,0,1.1-.1,1.8-.1,1.2,0,2.1.3,2.7.8.6.5.9,1.3.9,2.4s-.3,2-.9,2.6c-.6.6-1.6.9-2.9.9s-1.1,0-1.5,0v-6.5ZM49.4,51.2c.2,0,.5,0,.9,0,1.8,0,2.8-1,2.8-2.8,0-1.6-.9-2.5-2.7-2.5s-.8,0-1,0v5.2Z"/><path d="M58.9,49.8l-.7,2.1h-.9l2.2-6.6h1l2.2,6.6h-.9l-.7-2.1h-2.3ZM61.1,49.1l-.6-1.9c-.1-.4-.2-.8-.3-1.2h0c0,.4-.2.8-.3,1.2l-.6,1.9h2Z"/><path d="M67.5,51.8v-2.8l-2.1-3.8h1l.9,1.8c.3.5.4.9.7,1.4h0c.2-.4.4-.9.7-1.4l.9-1.8h1l-2.2,3.8v2.8h-.9Z"/><path d="M74,50.8c.4.2.9.4,1.5.4.9,0,1.4-.5,1.4-1.1s-.4-1-1.2-1.3c-1.1-.4-1.7-.9-1.7-1.9s.8-1.8,2.1-1.8,1.2.2,1.5.3l-.2.7c-.2-.1-.7-.3-1.2-.3-.9,0-1.2.5-1.2,1s.4.9,1.3,1.3c1.1.4,1.7,1,1.7,1.9s-.8,1.9-2.3,1.9-1.3-.2-1.7-.4l.2-.7Z"/></g></svg>