<?xml version="1.0" encoding="UTF-8"?>
<svg id="Layer_2" data-name="Layer 2" xmlns="http://www.w3.org/2000/svg" viewBox="0 0 995 368.47">
  <defs>
    <style>
      .cls-1 {
        fill: #fff;
      }
    </style>
  </defs>
  <g id="Layer-1">
    <path class="cls-1" d="M168.99,302.91c-.9-.7-2.1-1-3.2-1.4-.6-.3-1.1-.7-1.1-1.4,0-1,1-1.3,1.8-1.3h14.2c.8,0,1.7.3,1.7,1.3s-.5,1-1,1.4l-2.9,1.2c-.3,0-.3.1-.3.1v15.2c0,.8-.8,1.2-1.5,1.2s-1-.1-1.4-.3l-2.8-1.3c-.3-.1-.4-.1-.6-.1s-.3,0-.6.1c-2.1.9-4.1,1.6-6.4,1.6-13.2,0-13.5-12.3-13.5-20.1s.4-18.1,13.3-18.1,5.4.8,6.4,1.2c.3.1.9.2,1.1.2s1-.2,2-.7c.7-.3,1.5-.7,2.3-.7s1.7.8,1.7,1.8v11.6c0,.8-.7,1.3-1.5,1.3s-1.3-.4-1.7-1c-1.6-2.9-5.7-9.4-9.5-9.4s-4.2,3.1-4.2,13.8,1.4,15.6,3.6,15.6,4.1-1.3,4.1-5.4v-6.5.1Z"/>
    <path class="cls-1" d="M213.59,314.81s.2.1.3.2l3.1,1.6c.6.3,1.3.7,1.3,1.4s-1.2,1.1-2,1.1h-5c-4.4,0-7.2-1.5-7.2-4.1v-10.4c0-1.2-1.7-2.7-5-2.7h-.6v12.7c0,.2,0,.3.3.5l3,1.4c.5.3,1.2.6,1.2,1.3s-.8,1.3-1.6,1.3h-15.1c-.7,0-1.6-.4-1.6-1.3s.7-.9,1.2-1.3l3-1.4q.3-.2.3-.5v-29.3c0-.2,0-.3-.3-.5l-3-1.4c-.5-.3-1.2-.6-1.2-1.3s.8-1.3,1.6-1.3h12c10,0,16.2,2.7,16.2,9.9s-2.6,7.1-5.3,8.5c2.4,1.1,4.4,2.9,4.4,5.5v10.1ZM199.09,285.41h-.4v12.2h.4c4.1,0,5.6-1.3,5.6-6.7s-1.4-5.5-5.6-5.5Z"/>
    <path class="cls-1" d="M220.09,299.11c0-6.8,1.2-18.1,13.8-18.1s13.9,11.3,13.9,18.1-1.2,20.1-13.9,20.1-13.8-11.1-13.8-20.1ZM237.89,299.11c0-11.1-2.3-13.8-4-13.8s-3.9,2.7-3.9,13.8,2.3,15.6,3.9,15.6,4-2.6,4-15.6Z"/>
    <path class="cls-1" d="M297.09,315.11q.3-.2.3-.5v-29.3c0-.2,0-.3-.3-.5l-3-1.4c-.5-.3-1.2-.6-1.2-1.3s.8-1.3,1.6-1.3h15.1c.7,0,1.6.4,1.6,1.3s-.7.9-1.2,1.3l-3,1.4q-.3.2-.3.5v29.3c0,.2,0,.3.3.5l3,1.4c.5.3,1.2.6,1.2,1.3s-.8,1.3-1.6,1.3h-15.1c-.7,0-1.6-.4-1.6-1.3s.7-.9,1.2-1.3l3-1.4Z"/>
    <path class="cls-1" d="M337.09,299.11v-14s-.1,0-.2-.1l-2.8-1.5c-.5-.4-1.1-.6-1.1-1.3s.9-1.2,1.6-1.2h12.7c.7,0,1.6.4,1.6,1.2s-.6,1.1-1.2,1.3l-2.4,1.4c-.2.1-.4.3-.4.5v32.2c0,1.1-1,1.5-2,1.5h-4c-1.2,0-2.4-.7-2.8-1.8l-9.5-22.3v19.6c0,.2.2.3.4.4l2.6,1.4c.6.3,1.2.6,1.2,1.4s-.9,1.2-1.6,1.2h-12.7c-.7,0-1.6-.4-1.6-1.2s.6-1,1.1-1.3l2.4-1.4c.2-.1.4-.3.4-.5v-29.3c0-.2-.2-.4-.4-.5l-2.5-1.4c-.5-.4-1.1-.6-1.1-1.3s.9-1.2,1.6-1.2h11.6c1,0,1.7.5,2.1,1.4l7.1,16.7-.1.1Z"/>
    <path class="cls-1" d="M370.19,302.91c-.9-.7-2.1-1-3.2-1.4-.6-.3-1.1-.7-1.1-1.4,0-1,1-1.3,1.8-1.3h14.2c.8,0,1.7.3,1.7,1.3s-.5,1-1,1.4l-2.9,1.2c-.3,0-.3.1-.3.1v15.2c0,.8-.8,1.2-1.5,1.2s-1-.1-1.4-.3l-2.8-1.3c-.3-.1-.4-.1-.6-.1s-.3,0-.6.1c-2.1.9-4.1,1.6-6.4,1.6-13.2,0-13.5-12.3-13.5-20.1s.4-18.1,13.3-18.1,5.4.8,6.4,1.2c.3.1.9.2,1.1.2s1-.2,2-.7c.7-.3,1.5-.7,2.3-.7s1.7.8,1.7,1.8v11.6c0,.8-.7,1.3-1.5,1.3s-1.3-.4-1.7-1c-1.6-2.9-5.7-9.4-9.5-9.4s-4.2,3.1-4.2,13.8,1.4,15.6,3.6,15.6,4.1-1.3,4.1-5.4v-6.5.1Z"/>
    <path class="cls-1" d="M576.19,288.21l-4.3-1.2c-.6-.2-1.2-.6-1.2-1.3s1.1-1.2,1.8-1.4c4.4-.7,5.5-1.5,9.2-3.2.3-.1.5-.2.9-.2h1.2c.7,0,1.5.4,1.5,1.2,0,1.2-.3,2.9-.3,5.3v27.2c0,.2,0,.3.3.5l2.9,1.4c.5.3,1.2.6,1.2,1.3s-.8,1.3-1.6,1.3h-14.4c-.7,0-1.6-.4-1.6-1.3s.7-1.1,1.2-1.3l2.9-1.4q.3-.2.3-.5v-26.5.1Z"/>
    <path class="cls-1" d="M608.49,305.61c-1.3.6-2.9,1-4.6,1-7.7,0-12.5-5.2-12.5-12.6s3.5-13,13-13,13.1,5.5,13.1,18.7-2.3,19.5-12.7,19.5-11.8-6.5-11.8-10.1.9-1.5,1.8-1.5,1.5.4,1.8,1c1.9,3.4,3.2,6.2,7.8,6.2s3.9-6.6,3.9-9.2h.2ZM608.49,295.11c0-7.6-1.4-9.7-4-9.7s-3.9,2.2-3.9,8.3,1.1,8.5,3.9,8.5,4-2.2,4-7.1Z"/>
    <path class="cls-1" d="M626.29,288.21l-4.3-1.2c-.6-.2-1.2-.6-1.2-1.3s1.1-1.2,1.8-1.4c4.4-.7,5.5-1.5,9.2-3.2.3-.1.5-.2.9-.2h1.2c.7,0,1.5.4,1.5,1.2,0,1.2-.3,2.9-.3,5.3v27.2c0,.2,0,.3.3.5l2.9,1.4c.5.3,1.2.6,1.2,1.3s-.8,1.3-1.6,1.3h-14.4c-.7,0-1.6-.4-1.6-1.3s.7-1.1,1.2-1.3l2.9-1.4q.3-.2.3-.5v-26.5.1Z"/>
    <path class="cls-1" d="M647.89,288.21l-4.3-1.2c-.6-.2-1.2-.6-1.2-1.3s1.1-1.2,1.8-1.4c4.4-.7,5.5-1.5,9.2-3.2.3-.1.5-.2.9-.2h1.2c.7,0,1.5.4,1.5,1.2,0,1.2-.3,2.9-.3,5.3v27.2c0,.2,0,.3.3.5l2.9,1.4c.5.3,1.2.6,1.2,1.3s-.8,1.3-1.6,1.3h-14.4c-.7,0-1.6-.4-1.6-1.3s.7-1.1,1.2-1.3l2.9-1.4q.3-.2.3-.5v-26.5.1Z"/>
    <path class="cls-1" d="M426.99,281.41c.4.3.5.7.5,1.1v12c0,.9-.8,1.2-1.6,1.2s-1.2-.4-1.5-.9c-1.5-3.9-6-9.4-9.7-9.4s-1.6,0-1.6,1.3c0,1.9.9,4,8.1,11.6,6.7,7.1,7.8,9,7.8,13.2,0,6.1-6.3,7.7-9.9,7.7s-4.5-.6-5.7-1c-.3,0-1.3-.4-1.6-.4-1.2,0-2.9,1.4-4.2,1.4s-1.5-.4-1.5-1.2v-12.2c0-.8.7-1.3,1.5-1.3s1.1.4,1.5.9c1.6,3.6,4.4,9.5,9.5,9.5s1.8-.6,1.8-1.5c0-2.7-2.5-5.9-8.1-11.9-5.2-5.5-7.4-9.5-7.4-13.4s4.9-7,9.9-7,4.2.6,5.7,1.2c.5.1.9.2,1.1.2s.9-.2,1.8-.7c.8-.3,1.6-.7,2.4-.7s.9.1,1.2.4v-.1Z"/>
    <path class="cls-1" d="M437.69,315.11q.3-.2.3-.5v-29.3c0-.2,0-.3-.3-.5l-3-1.4c-.5-.3-1.2-.6-1.2-1.3s.8-1.3,1.6-1.3h15.1c.7,0,1.6.4,1.6,1.3s-.7.9-1.2,1.3l-3,1.4q-.3.2-.3.5v29.3c0,.2,0,.3.3.5l3,1.4c.5.3,1.2.6,1.2,1.3s-.8,1.3-1.6,1.3h-15.1c-.7,0-1.6-.4-1.6-1.3s.7-.9,1.2-1.3l3-1.4Z"/>
    <path class="cls-1" d="M477.69,299.11v-14s-.1,0-.2-.1l-2.8-1.5c-.5-.4-1.1-.6-1.1-1.3s.9-1.2,1.6-1.2h12.7c.7,0,1.6.4,1.6,1.2s-.6,1.1-1.2,1.3l-2.4,1.4c-.2.1-.4.3-.4.5v32.2c0,1.1-1,1.5-2,1.5h-4c-1.2,0-2.4-.7-2.8-1.8l-9.5-22.3v19.6c0,.2.2.3.4.4l2.6,1.4c.6.3,1.2.6,1.2,1.4s-.9,1.2-1.6,1.2h-12.7c-.7,0-1.6-.4-1.6-1.2s.6-1,1.1-1.3l2.4-1.4c.2-.1.4-.3.4-.5v-29.3c0-.2-.2-.4-.4-.5l-2.5-1.4c-.5-.4-1.1-.6-1.1-1.3s.9-1.2,1.6-1.2h11.6c1,0,1.7.5,2.1,1.4l7.1,16.7-.1.1Z"/>
    <path class="cls-1" d="M517.19,282.31v12c0,.9-.8,1.4-1.6,1.4s-1.5-.4-1.7-1.2c-1.2-4.2-3.8-9.1-7.9-9.1s-2.5.7-3.1,2.9c-.7,2.3-.9,5.8-.9,10.9,0,14.7,2.2,15.6,5.5,15.6s5.6-5.1,6.2-8v-.3c0-1,1-1.4,1.8-1.4s1.7.4,1.7,1.4c0,7.5-2.4,12.7-11.6,12.7s-13.5-12.2-13.5-20.1.4-18.1,13.5-18.1,3.5.5,5,1.1c.4.2.8.2,1.3.2s.8-.1,1.3-.4c.7-.4,1.5-.9,2.3-.9s1.5.5,1.6,1.3h.1Z"/>
    <path class="cls-1" d="M540.19,285.41h-4.5v12.1h1.4c.3-.3,3.1-4,4.7-4s1.4.4,1.4,1.3v10.2c0,1-.9,1.2-1.4,1.2s-1-.2-1.4-.6l-3.3-3.5h-1.5v12.7h4.5c1.2,0,1.7-.3,1.8-.4l5.1-9.2c.3-.6,1-.8,1.6-.8s1.5.5,1.5,1.3v12.1c0,1-.9,1.4-1.8,1.4h-24.9c-.7,0-1.6-.4-1.6-1.3s.7-.9,1.1-1.3l3-1.5q.3-.2.3-.5v-29.3c0-.2,0-.3-.3-.5l-3-1.4c-.5-.3-1.2-.6-1.2-1.3s.8-1.3,1.6-1.3h24.9c.8,0,1.8.5,1.8,1.4v12c0,.8-.7,1.3-1.5,1.3s-1.3-.3-1.6-.8l-5.2-9c0-.1-.5-.4-1.7-.4l.2.1Z"/>
    <path class="cls-1" d="M276.39,283.21c-.9.9-2.6,1.5-3,1.7l3.2,13,2.6-13c-.4-.2-2-.8-2.8-1.6v-.1ZM263.19,281.21c.2-.1.5-.2.8-.2h11.4c.4,0,.8,0,1.1.2.4-.2.8-.2,1.2-.2h11c.7,0,1.6.2,1.6,1.2s-.4,1-.8,1.3l-2.9,1.7c-.2.1-.3.3-.4.5l-6.4,32.4c0,.9-1,1.2-1.7,1.2h-2.5c-.7,0-1.3-.3-1.6-1l-4.7-18.9-3.8,18.7c0,.9-1,1.2-1.7,1.2h-2.5c-.7,0-1.3-.3-1.6-1l-7.7-32.6c-.1-.2-.3-.4-.5-.5l-2.4-1.6c-.5-.3-1-.7-1-1.4s.9-1.2,1.7-1.2h12.4c.4,0,.8,0,1.1.2h-.1ZM260.59,284.91l3,12.9,2.6-12.8c-.3-.2-2.1-.9-3-1.7-.1.1-.2.2-.4.3l-2.2,1.4v-.1Z"/>
    <g>
      <path class="cls-1" d="M742.59,265.61c-1.4-2.5-11.1,2.1-28.6,3.1-4.5.3-9-.3-13.3-1.7-9.2-3-15.6-9.1-19.2-18.1-1.3-3.3-2.1-6.8-2.5-10.3-.1-1.2,0-2.5-1-3.4-1.3-.5-2,.3-2.8,1-2.7,2.3-5.5,4.4-8.4,6.3-6.1,4.3-20.6,11.4-24.5,13-9.9,4.2-18,7.6-29.7,9.2-3,.4-10.6,1.3-20.3.7-6-.4-14.6-1.1-24.8-5-3.6-1.4-9.3-3.7-15.6-8.6-3.9-3-6.8-5.7-9.8-10-3.2-4.5-5.6-9.6-7.1-15.3-.4-1.4-.3-2.9-1.8-3.8-1.2-.2-1.7.7-2.3,1.4-5.5,6.3-11.2,12.4-17.6,17.7-10.9,8.9-21.9,17.2-35.8,20.2-2.9.6-6.1,1.2-9.2,1.2-6.6,0-17.3-1.7-24.2-6.2-6.4-4.1-10.5-9.6-12.8-16.7-.8-2.4-1-4.9-2-7.1-1.7-.8-2.5.4-3.3,1.3-4.8,4.7-10,8.9-15.5,12.7-7.6,5.4-15.9,9.7-25.1,11.8,0,0-21.4,4.5-32-1.8-.9-.5-10-5.1-16.5-18.2-1.1-2.1-1-4.7-2.2-6.7-1.6-.6-2.3.5-3,1.3-6.2,6.2-13.2,11.6-20.8,16-6.2,3.7-13,6-19.9,8.3-1.8.6-14.3,6-30.6-2.3-4.8-2.4-9.1-5.6-13-9.2-6.2-5.9-13.3-6.1-20.7-1.8-3.5,2-6.9,4.4-10.4,6.3-4,2.2-8.2,3.8-12.4,5.1-2.5.8-20.6,5.5-33.8-1.8-8.4-4.7-13.5-11.5-15.6-20.8-2.9-13.2-.2-25.7,3.9-38.1,3.8-11.4,32.4-79.3,38.5-90.1,2.4-4.2,5-8.2,8.8-11.3,7.3-6,34.3-12.3,40.7-6.3,2.4,3.8,1.4,7.8.3,11.7-1.8,6.9-4.7,13.4-7.4,20-9.3,22.7-19.8,44.9-29.9,67.2-2.3,5.1-4.4,10.4-5.8,15.9-.8,3.2-1.2,6.4-1,9.6.5,7.1,5.9,10.8,12.7,8.8,3.8-1.2,6.9-3.4,9.8-6,7.4-6.4,13.1-14.3,18.7-22.3,9.3-13.1,16-27.6,22.4-42.3,5.8-13.4,10.9-27.1,17.2-40.3,2.7-5.6,6-10.7,11.1-14.5,4.5-3.4,21.7-9.4,33.3-8.8,1.9,0,3,0,5,2.2,4.2,6,3,12.2.8,18.3-2.9,7.6-6.8,14.8-10,22.3-9.8,22.2-19.8,44.2-28.1,67-1.8,5.1-4,10.1-4.8,15.5-.3,2.4-.6,4.8-.1,7.2.9,5.4,4.8,8.4,10.2,7.9,4.6-.4,8.6-2.5,12.3-5.2,5.5-3.9,10-8.8,14.3-14,5.6-6.9,11.2-13.8,16-21.3,2.4-3.7,3.9-7.9,5.6-11.9,6-13.4,50.6-115,55-124.8,1.5-3.3,3.3-6.6,5.4-9.6,2.9-4,6.3-7.5,10.7-10,7.2-4,14.7-7.5,22.9-9.2,2.1-.4,4.1-.5,6.2-.4,3.9.2,6.5,2.3,7.4,6,1.1,4,.7,8.1-.3,12.1-1.6,6.7-51.8,120.9-59.5,138.3-3,6.8-6.5,13.4-9,20.3-2.3,6.3-4.2,12.7-4.5,19.4,0,2.5.4,4.8,1.5,7,2.1,4.1,5.7,5.8,10.2,4.6,5.4-1.4,9.8-4.6,14-8.1,11.8-9.9,21.6-21.4,29.6-34.6,1.6-2.6,2.5-5.5,3.7-8.3,6.1-14.2,12.8-28.1,18.8-42.3,5.6-13.3,11.4-26.5,16.8-39.8,4.9-12.1,9.8-24.2,15.1-36.1,2.4-5.5,5.2-11,7.6-16.5,2.8-6.3,7.4-10.8,13.3-14.1,7.8-4.5,16.3-6.9,25.3-7.4,1.7,0,3.3,0,5,.2,5.5.6,7.8,4.1,7.6,9.2,0,3-.6,6-1.4,9-2.2,8.2-5.5,16-8.9,23.8-3.6,8.1-62.7,141.9-63.7,149.6-.4,3-.7,6-.2,9.1,1.2,6.6,6.1,9.6,12.5,7.5,4.6-1.5,8.7-4,12.4-7.2,10.8-9.4,20.1-20,28.1-31.8,4.4-6.6,9.2-18.9,9.9-21.1,1.3-4.1,8-19.9,13.8-29.1,4.7-7.4,9.8-14.6,16-20.8,10.8-10.7,23.1-18.8,37.6-23.5,16.6-5.3,30.3-3.5,34.9-2.9,7,1,14.7,2.2,22.7,7.7,2.7,1.8,10.7,7.5,15,18.2.4,1.1,1.9,4.6,2.5,9.4.9,7.9-.6,15.6-3.1,23.1-5.5,16.8-16.1,29.6-31.2,38.7-6.4,3.9-13.6,5.9-20.8,7.5-8.7,1.9-17.5,2.6-26.4,2.6-3.1,0-6.3-.2-9.4.2-2.6.3-5.1,1-7.3,2.5-5.3,3.6-6.3,9.2-3.8,16,2.4,6.6,7.3,11.1,13.9,13.6,9.2,3.5,18.6,3.4,28.1,1.8,18.3-3.3,30.7-11.7,39.4-17.6,14.1-9.6,20.6-18.1,23-21.6,2-2.9,3.4-5.4,4.7-7.7,12.5-22.9,26.4-60.6,34.8-75.3,1.3-2.4,3-4.4,4.8-6.1,3.9-3.6,8.2-4.9,13.2-6.4,6.2-1.8,10.8-2.1,14.8-2.4,0,0,5.3-.3,10.7,1.4.9.3,2.3.8,3.2,2,.2.3,1.2,1.4,1.2,3.8,0,2-.5,3.9-1.3,5.8-5.2,12.3-35.2,83.2-40.3,97.2-1.8,4.8-2.6,9.7-1.4,14.8,1.3,5.7,5,8,10.7,6.6,2-.5,3.4-1.1,4.5-1.7,5.3-2.9,9-6.8,9.8-7.7,6.8-7.3,9.9-12,9.9-12,13-19.5,20.2-34.6,20.2-34.6,4.8-10.6,8.9-21.4,13.7-32,2.8-6.3,5.6-12.6,8.7-18.7,4.4-8.5,10.6-15.2,19.6-19.1,2.4-1,5-1.7,7.6-1.9,6-.6,11.9-.6,17.8.2,3.4.5,4.6,1.7,4.6,5.1s-1.1,7.6-2.2,11.3c-2.1,7.2-36.6,87.4-40.9,96.2-7,14.4-13.9,28.8-21.4,42.9-.4.8-1,1.6-.4,2.7.2.1.5.3.9.4,1.3.3,2.6-.6,3.1-1,10-7.1,13-9.5,14.7-11.1.9-.8,8.8-10.6,15-20.2,4.9-9.5,9.6-17.2,13.3-22.9,8.1-12.4,12.2-16.2,14.8-18.4,2.4-1.9,7.6-6,15.3-8.8,0,0,8.2-3,16.1-2,.8,0,1.9.3,3.2,1,.8.4,2.3,1.3,3.3,3.1.2.3.8,1.7.7,3.2-.2,2.3-2,3.4-6.2,7,0,0-2.6,2.3-6,5.6-2.1,2.1-4.5,4.5-5.8,6.1-3.7,4.5-7.6,12.3-7,21.3.2,2.3.6,7.8,4.3,13.2,7.4,10.8,21.5,11.4,26.2,11.7,5.3.3,13.4.7,20.5-4.6,8.3-6.1,10-16.1,10.5-19.5,2.3-14.8-5.9-22.1-19.4-51.4-13.8-30-13.4-40.2-12.4-46,.6-3.7,2.5-14.4,11.3-23,11.9-11.8,28.1-11.6,35.3-11.5,9.8.1,17.6,2.8,23.7,4.9,8.3,2.9,19.8,11.9,24.3,19.9,3.3,5.9,4.4,12.1,2.1,18.7-.4,1.1-.9,2.1-1.6,3-2.5,3.3-6.8,3.7-9.9.9-7-6.5-10.8-12.8-17.3-16.6-2.2-1.3-5.9-2.8-11.5-2.8-.9,0-2.5.2-4.2,1.2-2.4,1.4-3.6,3.5-3.9,4.3,0,0-1.4,2.6-1.7,5.7-.7,7.6,17.1,33.4,23.8,49.9,1.8,4.6,8.9,23.4,3,44.9-4.7,17.1-15.2,27.6-19.1,31.3-15,14.4-31.8,18.3-39.2,19.9-8.9,1.9-39.2,8.5-61.9-10.2-8.1-6.6-12.7-14.4-15.2-19.7,0,0-.2,0-.4-.1-1.4-.3-3.2,2-3.2,2-4.4,5.3-27.4,24.5-32,28.1-4.5,3.5-15.2,15.2-18.1,21-3.6,7.3-6.5,14.9-10.3,22.2-5.7,10.9-12,21.5-21.1,30.2-6.1,5.9-13.2,10.2-21,13.4-5,2-10.1,3.5-15.4,4.1-9.2,1.1-18.2.4-26.6-3.9-16.4-8.4-23-28.8-15.9-44.2,5.9-12.8,16.4-20.8,22.8-24.7,7.5-4.6,18-8.7,22-10.3,7-2.8,12.9-4.3,19.4-9.7,2.9-2.4,8.6-7.8,7.4-9.9v-.3l-.1.6ZM607.69,176.61c12.4-.8,23.6-4.6,32.2-14,7.9-8.7,11.2-18.8,7.7-30.4-1.8-6-6.2-9.6-12.6-10.2-10.3-1.1-18.6,3-25.5,10.2-6.1,6.4-10.4,13.8-13.1,22.2-1.4,4.5-2.6,9.1-2.1,13.8.4,4.4,3.1,7.3,7.5,8,2,.3,3.9.3,6,.3h0l-.1.1ZM703.19,337.31c1.9,0,4.3-.7,6.5-2,8.5-5.4,14-13.2,17.6-22.4.4-.9.5-2,.5-3.1,0-2.9-1.8-4.9-4.7-5.1-1.2,0-2.3,0-3.4.3-8.6,2.6-16.2,7.1-22.4,13.7-2.3,2.5-3.8,5.5-3.9,9-.3,6,3.3,9.7,9.8,9.7v-.1ZM926.69,267.91c-.7,0-.8.3-.5.9.7,0,.8-.4.5-.9Z"/>
      <path class="cls-1" d="M10.29,70.51c-5.5-1.9-7.6-8.5-8.9-12.5-2.3-7.2-1.2-13.3-.5-16.8.6-3,1.9-9.8,7.2-16.4.8-1,4-4.9,9.7-8.2,5.1-3,10-4.3,16.6-5.4,9.3-1.5,18.7-1.8,28.1-1.9,12.6-.1,25.3.5,37.9.9,17.1.5,34.2,1.4,51.3,1.8,27.1.6,54.1.8,81.1,0,16.4-.5,32.7-1.7,49-3.6,11.5-1.4,22.9-3.2,34.4-5,4.7-.8,9.4-1.9,14.1-2.8,1-.2,2-.4,3.1-.5,8.6-1.1,12.4,6.2,11.8,11.8-.9,8.5-4,16.2-9.4,22.9-8.1,10-18.4,16.6-30.6,20.3-15.4,4.6-28.4,4.6-40.3,4.1-12.3-.4-65.4-5.6-71.1-6.2-4.8-.5-6.8.5-8.2,5.1-2.5,8.5-47,108.7-51.3,118.1-4,8.8-7.8,17.8-10.6,27.1-4.3,14.6-5.8,29.5-3.5,44.6.3,2.2,6.3,24.4,8.2,29.8,0,.3.6,1.7.9,3.6.3,1.7.8,6-1,10.6-.9,2.4-1.8,3.1-2.2,3.4-1.3,1-2.7,1.2-4,1.2-4.2.2-8.1-.9-11.8-2.7-7.9-3.7-14.1-9.6-19.7-16.2-4.7-5.6-8.2-11-10.1-13.9-3.3-5.3-6.8-12.3-9.4-20.7-5.3-17.1-4.4-32.2-3.1-41.3.5-4.4,3.6-19.1,14.1-44.7,8.3-20,50.5-104.1,50.9-105.4,1.2-3.3.1-5.3-3.3-6-1.7-.3-3.5-.4-5.3-.5-13-.7-26.1-.8-39.1.1-2.4.2-11.1.9-22.4,2.8-8.8,1.5-12.1,2.5-15.2,3.9-5,2.2-10.1,5.4-12.4,7.2-.2.2-2.1,1.6-4.4,3.4-1.4,1.1-1.8,1.4-2.7,2.1-4.1,2.9-11.7,8.2-18.1,6h0l.2-.1Z"/>
    </g>
  </g>
</svg>